{
    "asset" : {
        "generator" : "Khronos glTF Blender I/O v1.7.33",
        "version" : "2.0"
    },
    "scene" : 0,
    "scenes" : [
        {
            "name" : "Scene",
            "nodes" : [
                0
            ]
        }
    ],
    "nodes" : [
        {
            "mesh" : 0,
            "name" : "kiwi",
            "rotation" : [
                0.7071068286895752,
                0,
                0,
                0.7071067094802856
            ]
        }
    ],
    "materials" : [
        {
            "doubleSided" : true,
            "name" : "KiwiBlack",
            "pbrMetallicRoughness" : {
                "baseColorFactor" : [
                    0,
                    0,
                    0,
                    1
                ],
                "metallicFactor" : 0
            }
        },
        {
            "doubleSided" : true,
            "name" : "KiwiBody",
            "pbrMetallicRoughness" : {
                "baseColorFactor" : [
                    0.2199999988079071,
                    0.5899999737739563,
                    0.28999999165534973,
                    1
                ],
                "metallicFactor" : 0
            }
        },
        {
            "doubleSided" : true,
            "name" : "KiwiBeak",
            "pbrMetallicRoughness" : {
                "baseColorFactor" : [
                    1,
                    0.9200000166893005,
                    0.25,
                    1
                ],
                "metallicFactor" : 0
            }
        }
    ],
    "meshes" : [
        {
            "name" : "Mesh",
            "primitives" : [
                {
                    "attributes" : {
                        "POSITION" : 0,
                        "NORMAL" : 1
                    },
                    "indices" : 2,
                    "material" : 0
                },
                {
                    "attributes" : {
                        "POSITION" : 3,
                        "NORMAL" : 4
                    },
                    "indices" : 5,
                    "material" : 1
                },
                {
                    "attributes" : {
                        "POSITION" : 6,
                        "NORMAL" : 7
                    },
                    "indices" : 8,
                    "material" : 2
                }
            ]
        }
    ],
    "accessors" : [
        {
            "bufferView" : 0,
            "componentType" : 5126,
            "count" : 74,
            "max" : [
                25,
                71.26993560791016,
                -0.05101776123046875
            ],
            "min" : [
                -25,
                -2.9999992847442627,
                -142.81097412109375
            ],
            "type" : "VEC3"
        },
        {
            "bufferView" : 1,
            "componentType" : 5126,
            "count" : 74,
            "type" : "VEC3"
        },
        {
            "bufferView" : 2,
            "componentType" : 5123,
            "count" : 78,
            "type" : "SCALAR"
        },
        {
            "bufferView" : 3,
            "componentType" : 5126,
            "count" : 1296,
            "max" : [
                73.07685852050781,
                73.06047058105469,
                -30.65595245361328
            ],
            "min" : [
                -73.07640075683594,
                -73.13883972167969,
                -172.65594482421875
            ],
            "type" : "VEC3"
        },
        {
            "bufferView" : 4,
            "componentType" : 5126,
            "count" : 1296,
            "type" : "VEC3"
        },
        {
            "bufferView" : 5,
            "componentType" : 5123,
            "count" : 1728,
            "type" : "SCALAR"
        },
        {
            "bufferView" : 6,
            "componentType" : 5126,
            "count" : 12,
            "max" : [
                9,
                100.86201477050781,
                -57.486961364746094
            ],
            "min" : [
                -9,
                59.02027130126953,
                -128.66085815429688
            ],
            "type" : "VEC3"
        },
        {
            "bufferView" : 7,
            "componentType" : 5126,
            "count" : 12,
            "type" : "VEC3"
        },
        {
            "bufferView" : 8,
            "componentType" : 5123,
            "count" : 12,
            "type" : "SCALAR"
        }
    ],
    "bufferViews" : [
        {
            "buffer" : 0,
            "byteLength" : 888,
            "byteOffset" : 0
        },
        {
            "buffer" : 0,
            "byteLength" : 888,
            "byteOffset" : 888
        },
        {
            "buffer" : 0,
            "byteLength" : 156,
            "byteOffset" : 1776
        },
        {
            "buffer" : 0,
            "byteLength" : 15552,
            "byteOffset" : 1932
        },
        {
            "buffer" : 0,
            "byteLength" : 15552,
            "byteOffset" : 17484
        },
        {
            "buffer" : 0,
            "byteLength" : 3456,
            "byteOffset" : 33036
        },
        {
            "buffer" : 0,
            "byteLength" : 144,
            "byteOffset" : 36492
        },
        {
            "buffer" : 0,
            "byteLength" : 144,
            "byteOffset" : 36636
        },
        {
            "buffer" : 0,
            "byteLength" : 24,
            "byteOffset" : 36780
        }
    ],
    "buffers" : [
        {
            "byteLength" : 36804,
            "uri" : "data:application/octet-stream;base64,"
        }
    ]
}
