{
    "accessors" : [
        {
            "bufferView" : 0,
            "componentType" : 5123,
            "count" : 960,
            "max" : [
                959
            ],
            "min" : [
                0
            ],
            "type" : "SCALAR"
        },
        {
            "bufferView" : 1,
            "componentType" : 5126,
            "count" : 960,
            "max" : [
                2.0,
                2.0,
                1.9999998807907104
            ],
            "min" : [
                -1.9999998807907104,
                -2.0,
                -1.9999998807907104
            ],
            "type" : "VEC3"
        },
        {
            "bufferView" : 2,
            "componentType" : 5126,
            "count" : 960,
            "max" : [
                0.9854123592376709,
                0.9877859354019165,
                0.9846491813659668
            ],
            "min" : [
                -0.9854124784469604,
                -0.9877859354019165,
                -0.9846491813659668
            ],
            "type" : "VEC3"
        },
        {
            "bufferView" : 3,
            "componentType" : 5123,
            "count" : 5760,
            "max" : [
                1118
            ],
            "min" : [
                0
            ],
            "type" : "SCALAR"
        },
        {
            "bufferView" : 4,
            "componentType" : 5126,
            "count" : 1119,
            "max" : [
                3.6923460960388184,
                10.492624282836914,
                2.1827430725097656
            ],
            "min" : [
                -3.7663540840148926,
                9.854724884033203,
                1.855044960975647
            ],
            "type" : "VEC3"
        },
        {
            "bufferView" : 5,
            "componentType" : 5126,
            "count" : 1119,
            "max" : [
                0.99957275390625,
                0.9928891658782959,
                0.9986266493797302
            ],
            "min" : [
                -0.999542236328125,
                -0.9928586483001709,
                -0.9986266493797302
            ],
            "type" : "VEC3"
        },
        {
            "bufferView" : 6,
            "componentType" : 5126,
            "count" : 1119,
            "max" : [
                0.999894380569458,
                0.945968508720398,
                0.3542729318141937,
                1.0
            ],
            "min" : [
                -0.9998853206634521,
                -0.9461119771003723,
                -0.32944679260253906,
                -1.0
            ],
            "type" : "VEC4"
        },
        {
            "bufferView" : 7,
            "componentType" : 5126,
            "count" : 1119,
            "max" : [
                1.0,
                1.0
            ],
            "min" : [
                0.0,
                0.0
            ],
            "type" : "VEC2"
        },
        {
            "bufferView" : 8,
            "componentType" : 5123,
            "count" : 1119,
            "max" : [
                0,
                0,
                0,
                0
            ],
            "min" : [
                0,
                0,
                0,
                0
            ],
            "type" : "VEC4"
        },
        {
            "bufferView" : 9,
            "componentType" : 5126,
            "count" : 1119,
            "max" : [
                0.0,
                0.0,
                0.0,
                0.0
            ],
            "min" : [
                0.0,
                0.0,
                0.0,
                0.0
            ],
            "type" : "VEC4"
        },
        {
            "bufferView" : 10,
            "componentType" : 5123,
            "count" : 5598,
            "max" : [
                1233
            ],
            "min" : [
                0
            ],
            "type" : "SCALAR"
        },
        {
            "bufferView" : 11,
            "componentType" : 5126,
            "count" : 1234,
            "max" : [
                10.89223861694336,
                11.46092414855957,
                7.056145191192627
            ],
            "min" : [
                -10.97406005859375,
                -0.08317600190639496,
                -4.234954833984375
            ],
            "type" : "VEC3"
        },
        {
            "bufferView" : 12,
            "componentType" : 5126,
            "count" : 1234,
            "max" : [
                0.99993896484375,
                0.999755859375,
                0.9998779296875
            ],
            "min" : [
                -0.99993896484375,
                -0.999969482421875,
                -0.9989318251609802
            ],
            "type" : "VEC3"
        },
        {
            "bufferView" : 13,
            "componentType" : 5126,
            "count" : 1234,
            "max" : [
                0.9999922513961792,
                0.9999256134033203,
                0.9979988932609558,
                1.0
            ],
            "min" : [
                -0.9994023442268372,
                -0.9999256730079651,
                -0.997288167476654,
                -1.0
            ],
            "type" : "VEC4"
        },
        {
            "bufferView" : 14,
            "componentType" : 5126,
            "count" : 1234,
            "max" : [
                0.9972000122070312,
                0.9795999992638826
            ],
            "min" : [
                0.017999999225139618,
                0.08160001039505005
            ],
            "type" : "VEC2"
        },
        {
            "bufferView" : 15,
            "componentType" : 5123,
            "count" : 1234,
            "max" : [
                0,
                0,
                0,
                0
            ],
            "min" : [
                0,
                0,
                0,
                0
            ],
            "type" : "VEC4"
        },
        {
            "bufferView" : 16,
            "componentType" : 5126,
            "count" : 1234,
            "max" : [
                0.0,
                0.0,
                0.0,
                0.0
            ],
            "min" : [
                0.0,
                0.0,
                0.0,
                0.0
            ],
            "type" : "VEC4"
        },
        {
            "bufferView" : 17,
            "componentType" : 5123,
            "count" : 5760,
            "max" : [
                1027
            ],
            "min" : [
                0
            ],
            "type" : "SCALAR"
        },
        {
            "bufferView" : 18,
            "componentType" : 5126,
            "count" : 1028,
            "max" : [
                4.19694709777832,
                10.816024780273438,
                2.0904428958892822
            ],
            "min" : [
                -4.278754234313965,
                9.323524475097656,
                0.8614429831504822
            ],
            "type" : "VEC3"
        },
        {
            "bufferView" : 19,
            "componentType" : 5126,
            "count" : 1028,
            "max" : [
                0.9888302087783813,
                0.9991455078125,
                0.9989318251609802
            ],
            "min" : [
                -0.9888302087783813,
                -0.9991455078125,
                -0.9989623427391052
            ],
            "type" : "VEC3"
        },
        {
            "bufferView" : 20,
            "componentType" : 5126,
            "count" : 1028,
            "max" : [
                0.9955725073814392,
                0.5854930877685547,
                0.9295384883880615,
                1.0
            ],
            "min" : [
                -0.9955262541770935,
                -0.5853741765022278,
                -0.879894495010376,
                -1.0
            ],
            "type" : "VEC4"
        },
        {
            "bufferView" : 21,
            "componentType" : 5126,
            "count" : 1028,
            "max" : [
                0.9121999740600586,
                0.9006000012159348
            ],
            "min" : [
                -0.0868000015616417,
                -0.09839999675750732
            ],
            "type" : "VEC2"
        },
        {
            "bufferView" : 22,
            "componentType" : 5123,
            "count" : 1028,
            "max" : [
                0,
                0,
                0,
                0
            ],
            "min" : [
                0,
                0,
                0,
                0
            ],
            "type" : "VEC4"
        },
        {
            "bufferView" : 23,
            "componentType" : 5126,
            "count" : 1028,
            "max" : [
                0.0,
                0.0,
                0.0,
                0.0
            ],
            "min" : [
                0.0,
                0.0,
                0.0,
                0.0
            ],
            "type" : "VEC4"
        }
    ],
    "asset" : {
        "generator" : "Khronos Blender glTF 2.0 exporter",
        "version" : "2.0"
    },
    "bufferViews" : [
        {
            "buffer" : 0,
            "byteLength" : 1920,
            "byteOffset" : 0,
            "target" : 34963
        },
        {
            "buffer" : 0,
            "byteLength" : 11520,
            "byteOffset" : 1920,
            "target" : 34962
        },
        {
            "buffer" : 0,
            "byteLength" : 11520,
            "byteOffset" : 13440,
            "target" : 34962
        },
        {
            "buffer" : 0,
            "byteLength" : 11520,
            "byteOffset" : 24960,
            "target" : 34963
        },
        {
            "buffer" : 0,
            "byteLength" : 13428,
            "byteOffset" : 36480,
            "target" : 34962
        },
        {
            "buffer" : 0,
            "byteLength" : 13428,
            "byteOffset" : 49908,
            "target" : 34962
        },
        {
            "buffer" : 0,
            "byteLength" : 17904,
            "byteOffset" : 63336,
            "target" : 34962
        },
        {
            "buffer" : 0,
            "byteLength" : 8952,
            "byteOffset" : 81240,
            "target" : 34962
        },
        {
            "buffer" : 0,
            "byteLength" : 8952,
            "byteOffset" : 90192,
            "target" : 34962
        },
        {
            "buffer" : 0,
            "byteLength" : 17904,
            "byteOffset" : 99144,
            "target" : 34962
        },
        {
            "buffer" : 0,
            "byteLength" : 11196,
            "byteOffset" : 117048,
            "target" : 34963
        },
        {
            "buffer" : 0,
            "byteLength" : 14808,
            "byteOffset" : 128244,
            "target" : 34962
        },
        {
            "buffer" : 0,
            "byteLength" : 14808,
            "byteOffset" : 143052,
            "target" : 34962
        },
        {
            "buffer" : 0,
            "byteLength" : 19744,
            "byteOffset" : 157860,
            "target" : 34962
        },
        {
            "buffer" : 0,
            "byteLength" : 9872,
            "byteOffset" : 177604,
            "target" : 34962
        },
        {
            "buffer" : 0,
            "byteLength" : 9872,
            "byteOffset" : 187476,
            "target" : 34962
        },
        {
            "buffer" : 0,
            "byteLength" : 19744,
            "byteOffset" : 197348,
            "target" : 34962
        },
        {
            "buffer" : 0,
            "byteLength" : 11520,
            "byteOffset" : 217092,
            "target" : 34963
        },
        {
            "buffer" : 0,
            "byteLength" : 12336,
            "byteOffset" : 228612,
            "target" : 34962
        },
        {
            "buffer" : 0,
            "byteLength" : 12336,
            "byteOffset" : 240948,
            "target" : 34962
        },
        {
            "buffer" : 0,
            "byteLength" : 16448,
            "byteOffset" : 253284,
            "target" : 34962
        },
        {
            "buffer" : 0,
            "byteLength" : 8224,
            "byteOffset" : 269732,
            "target" : 34962
        },
        {
            "buffer" : 0,
            "byteLength" : 8224,
            "byteOffset" : 277956,
            "target" : 34962
        },
        {
            "buffer" : 0,
            "byteLength" : 16448,
            "byteOffset" : 286180,
            "target" : 34962
        }
    ],
    "buffers" : [
        {
            "byteLength" : 302628,
            "uri" : "data:application/octet-stream;base64,"
        }
    ],
    "images" : [
        {
            "mimeType" : "image/png",
            "name" : "eye",
            "uri" : "data:image/png;base64,"
        },
        {
            "mimeType" : "image/png",
            "name" : "frogbody",
            "uri" : "data:image/png;base64,"
        },
        {
            "mimeType" : "image/png",
            "name" : "pupil",
            "uri" : "data:image/png;base64,"
        }
    ],
    "materials" : [
        {
            "name" : "eye",
            "pbrMetallicRoughness" : {
                "baseColorFactor" : [
                    0.36038539946653536,
                    0.3283382464697695,
                    0.6296522711165586,
                    1.0
                ],
                "baseColorTexture" : {
                    "index" : 0
                },
                "metallicFactor" : 0.0
            }
        },
        {
            "name" : "frogbody",
            "pbrMetallicRoughness" : {
                "baseColorFactor" : [
                    0.5395643314654279,
                    0.6257832620409616,
                    0.3505792908456815,
                    1.0
                ],
                "baseColorTexture" : {
                    "index" : 1
                },
                "metallicFactor" : 0.0
            }
        },
        {
            "name" : "pupil",
            "pbrMetallicRoughness" : {
                "baseColorFactor" : [
                    0.3606861168248372,
                    0.7474156491073316,
                    0.4094957889541355,
                    1.0
                ],
                "baseColorTexture" : {
                    "index" : 2
                },
                "metallicFactor" : 0.0
            }
        }
    ],
    "meshes" : [
        {
            "name" : "smd_bone_vis",
            "primitives" : [
                {
                    "attributes" : {
                        "NORMAL" : 2,
                        "POSITION" : 1
                    },
                    "indices" : 0
                }
            ]
        },
        {
            "name" : "frog_GetOut_Frog",
            "primitives" : [
                {
                    "attributes" : {
                        "JOINTS_0" : 8,
                        "NORMAL" : 5,
                        "POSITION" : 4,
                        "TANGENT" : 6,
                        "TEXCOORD_0" : 7,
                        "WEIGHTS_0" : 9
                    },
                    "indices" : 3,
                    "material" : 2
                },
                {
                    "attributes" : {
                        "JOINTS_0" : 15,
                        "NORMAL" : 12,
                        "POSITION" : 11,
                        "TANGENT" : 13,
                        "TEXCOORD_0" : 14,
                        "WEIGHTS_0" : 16
                    },
                    "indices" : 10,
                    "material" : 1
                },
                {
                    "attributes" : {
                        "JOINTS_0" : 22,
                        "NORMAL" : 19,
                        "POSITION" : 18,
                        "TANGENT" : 20,
                        "TEXCOORD_0" : 21,
                        "WEIGHTS_0" : 23
                    },
                    "indices" : 17,
                    "material" : 0
                }
            ]
        }
    ],
    "nodes" : [
        {
            "name" : "Camera",
            "rotation" : [
                0.483536034822464,
                0.33687159419059753,
                -0.20870360732078552,
                0.7804827094078064
            ],
            "translation" : [
                7.481131553649902,
                5.34366512298584,
                6.5076398849487305
            ]
        },
        {
            "mesh" : 1,
            "name" : "frog_GetOut_Frog"
        },
        {
            "name" : "Hemi",
            "translation" : [
                -0.9999949932098389,
                0.11342648416757584,
                -0.20644903182983398
            ]
        },
        {
            "name" : "Lamp",
            "rotation" : [
                0.16907575726509094,
                0.7558802962303162,
                -0.27217137813568115,
                0.570947527885437
            ],
            "scale" : [
                1.0,
                1.0,
                0.9999999403953552
            ],
            "translation" : [
                4.076245307922363,
                5.903861999511719,
                -1.0054539442062378
            ]
        },
        {
            "mesh" : 0,
            "name" : "smd_bone_vis",
            "translation" : [
                -0.9999949932098389,
                0.11342648416757584,
                -0.20644903182983398
            ]
        }
    ],
    "samplers" : [
        {}
    ],
    "scene" : 0,
    "scenes" : [
        {
            "name" : "frog.qc",
            "nodes" : [
                2,
                1,
                3,
                0
            ]
        }
    ],
    "textures" : [
        {
            "sampler" : 0,
            "source" : 0
        },
        {
            "sampler" : 0,
            "source" : 1
        },
        {
            "sampler" : 0,
            "source" : 2
        }
    ]
}
