<?xml version="1.0" encoding="UTF-8" standalone="no"?>
<svg
   xmlns:dc="http://purl.org/dc/elements/1.1/"
   xmlns:cc="http://creativecommons.org/ns#"
   xmlns:rdf="http://www.w3.org/1999/02/22-rdf-syntax-ns#"
   xmlns:svg="http://www.w3.org/2000/svg"
   xmlns="http://www.w3.org/2000/svg"
   viewBox="0 0 377.23999 360"
   height="380"
   width="377.23999"
   xml:space="preserve"
   id="svg2"
   version="1.1"><metadata
     id="metadata8"><rdf:RDF><cc:Work
         rdf:about=""><dc:format>image/svg+xml</dc:format><dc:type
           rdf:resource="http://purl.org/dc/dcmitype/StillImage" /></cc:Work></rdf:RDF></metadata><defs
     id="defs6" /><g
     transform="matrix(1.3333333,0,0,-1.3333333,0,486.66667)"
     id="g10"><g
       transform="scale(0.1)"
       id="g12"><path
         id="path14"
         style="fill:#d51e25;fill-opacity:1;fill-rule:nonzero;stroke:none"
         d="m 801.723,1196.06 c 182.656,-97.62 391.247,-153.2 612.927,-153.2 221.68,0 430.28,55.58 612.93,153.2 H 801.723 Z M 323.418,1633.77 C 427.359,1474.92 565.039,1340.4 726.203,1239.83 H 2103.11 c 161.16,100.57 298.84,235.09 402.78,393.94 z m -183.332,437.72 c 30.309,-141.19 83.457,-273.8 155.422,-393.94 H 2533.8 c 71.96,120.14 125.11,252.75 155.42,393.94 z M 1414.65,3650 C 694.602,3650 111.082,3066.05 111.082,2346.15 c 0,-78.94 7.348,-155.82 20.797,-230.89 H 2697.43 c 13.45,75.07 20.8,151.95 20.8,230.89 0,719.9 -583.52,1303.85 -1303.58,1303.85" /></g></g></svg>