<?xml version="1.0" standalone="no"?>
<!DOCTYPE svg PUBLIC "-//W3C//DTD SVG 20010904//EN"
 "http://www.w3.org/TR/2001/REC-SVG-20010904/DTD/svg10.dtd">
<svg version="1.0" xmlns="http://www.w3.org/2000/svg"
 width="760.000000pt" height="760.000000pt" viewBox="0 0 760.000000 760.000000"
 preserveAspectRatio="xMidYMid meet">
<metadata>
Created by potrace 1.11, written by Peter Selinger 2001-2013
</metadata>
<g transform="translate(0.000000,760.000000) scale(0.100000,-0.100000)"
fill="#000000" stroke="none">
<path d="M3588 7394 c-2 -1 -39 -5 -83 -8 -44 -3 -91 -7 -105 -10 -14 -2 -47
-7 -75 -10 -27 -3 -59 -8 -70 -10 -11 -2 -38 -7 -60 -11 -22 -4 -51 -9 -64
-11 -24 -5 -140 -30 -173 -38 -123 -31 -375 -112 -393 -127 -5 -5 -15 -9 -23
-9 -25 0 -323 -136 -333 -152 -3 -5 -9 -9 -13 -7 -10 2 -180 -93 -184 -103 -2
-4 -8 -8 -13 -8 -12 0 -93 -52 -97 -62 -2 -5 -8 -8 -14 -8 -8 0 -133 -85 -173
-117 -5 -5 -55 -44 -110 -88 -93 -74 -343 -316 -426 -411 -45 -53 -132 -163
-189 -239 -16 -22 -34 -45 -38 -50 -5 -6 -11 -15 -13 -20 -5 -11 -81 -127 -89
-135 -3 -3 -13 -21 -23 -40 -36 -68 -52 -95 -59 -100 -4 -3 -19 -30 -34 -60
-14 -30 -37 -77 -51 -105 -72 -140 -169 -389 -208 -530 -9 -33 -19 -67 -22
-75 -8 -20 -11 -30 -17 -60 -8 -36 -15 -67 -21 -92 -11 -45 -45 -224 -50 -260
-3 -21 -7 -57 -10 -80 -3 -24 -8 -59 -10 -78 -22 -173 -22 -518 0 -710 3 -25
8 -63 10 -85 3 -22 7 -49 9 -60 2 -11 7 -41 10 -67 5 -35 12 -48 24 -49 73 -3
6823 -1 6827 2 2 3 7 20 10 39 3 19 8 46 10 60 8 38 15 110 30 285 13 153 8
454 -10 588 -3 18 -7 55 -10 82 -7 59 -16 114 -29 180 -2 11 -7 40 -11 65 -3
25 -11 59 -16 75 -5 17 -20 75 -34 131 -28 116 -92 313 -107 332 -6 6 -8 12
-4 12 4 0 -3 19 -15 43 -12 23 -22 44 -22 47 1 7 -11 37 -43 105 -15 33 -28
62 -29 65 -8 37 -216 397 -262 455 -4 6 -28 39 -53 75 -24 36 -49 70 -55 76
-5 6 -21 26 -35 44 -25 34 -60 75 -115 140 -144 168 -486 473 -634 565 -9 6
-18 13 -21 16 -8 10 -199 129 -206 129 -4 0 -15 6 -23 14 -19 17 -263 142
-341 175 -119 50 -170 69 -170 64 0 -3 -6 0 -14 6 -8 7 -22 14 -32 16 -16 4
-140 44 -194 63 -8 3 -19 6 -25 7 -5 2 -64 17 -130 33 -107 27 -147 36 -220
47 -11 2 -36 6 -55 10 -19 4 -48 8 -65 10 -16 3 -51 7 -76 10 -25 4 -63 8 -85
11 -45 5 -542 13 -546 8z"/>
<path d="M410 3175 c0 -19 55 -232 70 -271 7 -16 14 -38 16 -50 3 -18 55 -160
94 -259 6 -16 11 -32 12 -35 0 -3 6 -16 13 -30 8 -14 39 -77 70 -140 62 -124
112 -217 128 -238 8 -10 99 -12 416 -12 223 0 834 1 1356 1 523 0 957 1 965 1
422 -3 3185 0 3190 3 5 3 11 1 15 -5 14 -22 46 14 99 110 88 161 206 421 206
454 0 9 4 16 8 16 5 0 9 6 9 13 0 6 14 53 30 102 41 125 65 205 70 238 2 16
11 46 18 67 7 21 11 41 8 44 -4 3 -1533 6 -3400 6 -3021 0 -3393 -2 -3393 -15z"/>
<path d="M916 2022 c-9 -2 -16 -7 -14 -11 14 -31 171 -240 261 -346 71 -82
309 -320 382 -380 33 -28 74 -62 90 -77 17 -16 33 -28 37 -28 4 0 13 -6 20
-13 7 -7 42 -33 78 -59 36 -26 70 -51 75 -56 6 -4 37 -24 70 -44 l60 -36 1830
0 c1828 1 1830 1 1868 21 20 11 37 24 37 29 0 4 5 8 10 8 8 0 121 74 155 102
6 5 37 29 70 54 33 25 67 52 75 59 8 8 25 23 38 35 12 11 24 20 27 20 10 0
303 296 366 370 71 83 209 265 209 275 0 3 11 18 25 33 14 15 25 31 25 37 0 9
-5746 16 -5794 7z"/>
<path d="M2190 850 c0 -11 368 -178 404 -184 6 -1 16 -4 21 -7 6 -4 42 -16 80
-28 39 -13 77 -25 85 -29 8 -3 20 -7 25 -8 6 -1 13 -3 18 -4 4 -1 10 -3 15 -4
4 -1 32 -9 62 -18 30 -9 82 -22 115 -29 78 -17 144 -31 155 -34 3 0 32 -5 65
-9 32 -4 68 -10 80 -12 48 -10 75 -14 150 -21 94 -8 586 -9 665 0 30 4 78 9
105 11 28 3 61 8 75 11 14 2 41 7 60 10 49 8 101 17 125 22 11 2 31 6 45 9 14
3 41 9 60 14 19 5 46 11 60 14 47 10 256 75 303 95 26 11 49 21 52 21 32 4 65
14 65 21 0 5 6 9 13 9 22 0 337 143 337 153 0 1 -729 3 -1620 3 -891 -1 -1620
-3 -1620 -6z"/>
</g>
</svg>
